<?xml version="1.0" encoding="UTF-8" standalone="no"?>
<!DOCTYPE svg PUBLIC "-//W3C//DTD SVG 1.1//EN"
 "http://www.w3.org/Graphics/SVG/1.1/DTD/svg11.dtd">
<!-- Generated by graphviz version 2.43.0 (0)
 -->
<!-- Title: %3 Pages: 1 -->
<svg width="3617pt" height="238pt"
 viewBox="0.00 0.00 3616.50 237.74" xmlns="http://www.w3.org/2000/svg" xmlns:xlink="http://www.w3.org/1999/xlink">
<g id="graph0" class="graph" transform="scale(1 1) rotate(0) translate(36 201.74)">
<title>%3</title>
<polygon fill="dimgray" stroke="transparent" points="-36,36 -36,-201.74 3580.5,-201.74 3580.5,36 -36,36"/>
<text text-anchor="middle" x="1772.25" y="-150.54" font-family="Helvetica,sans-Serif" font-size="14.00">Sweep&#39;s Plan &amp; Progress</text>
<!-- start -->
<g id="node1" class="node">
<title>start</title>
</g>
<!-- 94ee330f&#45;40b8&#45;47b1&#45;a807&#45;e78a23165633 -->
<g id="node3" class="node">
<title>94ee330f&#45;40b8&#45;47b1&#45;a807&#45;e78a23165633</title>
<ellipse fill="#0ee832" stroke="black" cx="251" cy="-99.87" rx="177.47" ry="26.74"/>
<text text-anchor="middle" x="251" y="-103.67" font-family="Helvetica,sans-Serif" font-size="14.00">✓ Modify</text>
<text text-anchor="middle" x="251" y="-88.67" font-family="Helvetica,sans-Serif" font-size="14.00">convertPheno_client/package.json</text>
</g>
<!-- start&#45;&gt;94ee330f&#45;40b8&#45;47b1&#45;a807&#45;e78a23165633 -->
<g id="edge10" class="edge">
<title>start&#45;&gt;94ee330f&#45;40b8&#45;47b1&#45;a807&#45;e78a23165633</title>
<path fill="none" stroke="black" d="M22.66,-99.87C25.98,-99.87 41.65,-99.87 63.36,-99.87"/>
<polygon fill="black" stroke="black" points="63.37,-103.37 73.37,-99.87 63.37,-96.37 63.37,-103.37"/>
<text text-anchor="middle" x="48.01" y="-106.67" font-family="Helvetica,sans-Serif" font-size="14.00">Start</text>
</g>
<!-- end -->
<g id="node2" class="node">
<title>end</title>
</g>
<!-- 1706f2e1&#45;d6aa&#45;495e&#45;9c9d&#45;6dacececa578 -->
<g id="node4" class="node">
<title>1706f2e1&#45;d6aa&#45;495e&#45;9c9d&#45;6dacececa578</title>
<ellipse fill="white" stroke="black" cx="691" cy="-99.87" rx="197.98" ry="26.74"/>
<text text-anchor="middle" x="691" y="-103.67" font-family="Helvetica,sans-Serif" font-size="14.00">▶ Modify</text>
<text text-anchor="middle" x="691" y="-88.67" font-family="Helvetica,sans-Serif" font-size="14.00">convertPheno_client/src/code/Main.jsx</text>
</g>
<!-- 94ee330f&#45;40b8&#45;47b1&#45;a807&#45;e78a23165633&#45;&gt;1706f2e1&#45;d6aa&#45;495e&#45;9c9d&#45;6dacececa578 -->
<g id="edge2" class="edge">
<title>94ee330f&#45;40b8&#45;47b1&#45;a807&#45;e78a23165633&#45;&gt;1706f2e1&#45;d6aa&#45;495e&#45;9c9d&#45;6dacececa578</title>
<path fill="none" stroke="black" d="M428.89,-99.87C446.72,-99.87 464.55,-99.87 482.38,-99.87"/>
<polygon fill="black" stroke="black" points="482.88,-103.37 492.88,-99.87 482.88,-96.37 482.88,-103.37"/>
</g>
<!-- 7c5d7b31&#45;f2d9&#45;46fe&#45;8fcd&#45;2137879a7479 -->
<g id="node8" class="node">
<title>7c5d7b31&#45;f2d9&#45;46fe&#45;8fcd&#45;2137879a7479</title>
<polygon fill="yellow" stroke="black" points="446,-36 0,-36 0,0 446,0 446,-36"/>
<text text-anchor="middle" x="223" y="-14.3" font-family="Helvetica,sans-Serif" font-size="14.00">⋯ Run GitHub Actions for `convertPheno_client/package.json`</text>
</g>
<!-- 94ee330f&#45;40b8&#45;47b1&#45;a807&#45;e78a23165633&#45;&gt;7c5d7b31&#45;f2d9&#45;46fe&#45;8fcd&#45;2137879a7479 -->
<g id="edge1" class="edge">
<title>94ee330f&#45;40b8&#45;47b1&#45;a807&#45;e78a23165633&#45;&gt;7c5d7b31&#45;f2d9&#45;46fe&#45;8fcd&#45;2137879a7479</title>
<path fill="none" stroke="black" stroke-dasharray="5,2" d="M241.83,-72.72C238.81,-64.08 235.44,-54.47 232.39,-45.79"/>
<polygon fill="black" stroke="black" points="235.62,-44.43 229.01,-36.15 229.02,-46.74 235.62,-44.43"/>
</g>
<!-- c94279ca&#45;af6e&#45;4905&#45;a92d&#45;26e27ddf200c -->
<g id="node5" class="node">
<title>c94279ca&#45;af6e&#45;4905&#45;a92d&#45;26e27ddf200c</title>
<ellipse fill="white" stroke="black" cx="1371" cy="-99.87" rx="446.37" ry="26.74"/>
<text text-anchor="middle" x="1371" y="-103.67" font-family="Helvetica,sans-Serif" font-size="14.00">▶ Modify</text>
<text text-anchor="middle" x="1371" y="-88.67" font-family="Helvetica,sans-Serif" font-size="14.00">convertPheno_client/src/code/views/conversion/ components/clinicalData/ClinicalData.jsx</text>
</g>
<!-- 1706f2e1&#45;d6aa&#45;495e&#45;9c9d&#45;6dacececa578&#45;&gt;c94279ca&#45;af6e&#45;4905&#45;a92d&#45;26e27ddf200c -->
<g id="edge4" class="edge">
<title>1706f2e1&#45;d6aa&#45;495e&#45;9c9d&#45;6dacececa578&#45;&gt;c94279ca&#45;af6e&#45;4905&#45;a92d&#45;26e27ddf200c</title>
<path fill="none" stroke="black" d="M889.22,-99.87C897.58,-99.87 905.95,-99.87 914.31,-99.87"/>
<polygon fill="black" stroke="black" points="914.51,-103.37 924.51,-99.87 914.51,-96.37 914.51,-103.37"/>
</g>
<!-- d060856d&#45;152d&#45;4522&#45;8921&#45;ac84f638d0ba -->
<g id="node9" class="node">
<title>d060856d&#45;152d&#45;4522&#45;8921&#45;ac84f638d0ba</title>
<polygon fill="white" stroke="black" points="934.5,-36 463.5,-36 463.5,0 934.5,0 934.5,-36"/>
<text text-anchor="middle" x="699" y="-14.3" font-family="Helvetica,sans-Serif" font-size="14.00">▶ Run GitHub Actions for `convertPheno_client/src/code/Main.jsx`</text>
</g>
<!-- 1706f2e1&#45;d6aa&#45;495e&#45;9c9d&#45;6dacececa578&#45;&gt;d060856d&#45;152d&#45;4522&#45;8921&#45;ac84f638d0ba -->
<g id="edge3" class="edge">
<title>1706f2e1&#45;d6aa&#45;495e&#45;9c9d&#45;6dacececa578&#45;&gt;d060856d&#45;152d&#45;4522&#45;8921&#45;ac84f638d0ba</title>
<path fill="none" stroke="black" stroke-dasharray="5,2" d="M693.62,-72.72C694.47,-64.27 695.41,-54.89 696.26,-46.36"/>
<polygon fill="black" stroke="black" points="699.77,-46.45 697.28,-36.15 692.8,-45.75 699.77,-46.45"/>
</g>
<!-- 2e3ebad3&#45;c745&#45;401b&#45;bff2&#45;bf1bc614c17b -->
<g id="node6" class="node">
<title>2e3ebad3&#45;c745&#45;401b&#45;bff2&#45;bf1bc614c17b</title>
<ellipse fill="white" stroke="black" cx="2297" cy="-99.87" rx="444.54" ry="26.74"/>
<text text-anchor="middle" x="2297" y="-103.67" font-family="Helvetica,sans-Serif" font-size="14.00">▶ Modify</text>
<text text-anchor="middle" x="2297" y="-88.67" font-family="Helvetica,sans-Serif" font-size="14.00">convertPheno_client/src/code/views/conversion/ components/submission/Submission.jsx</text>
</g>
<!-- c94279ca&#45;af6e&#45;4905&#45;a92d&#45;26e27ddf200c&#45;&gt;2e3ebad3&#45;c745&#45;401b&#45;bff2&#45;bf1bc614c17b -->
<g id="edge6" class="edge">
<title>c94279ca&#45;af6e&#45;4905&#45;a92d&#45;26e27ddf200c&#45;&gt;2e3ebad3&#45;c745&#45;401b&#45;bff2&#45;bf1bc614c17b</title>
<path fill="none" stroke="black" d="M1817.27,-99.87C1825.49,-99.87 1833.7,-99.87 1841.92,-99.87"/>
<polygon fill="black" stroke="black" points="1841.94,-103.37 1851.94,-99.87 1841.94,-96.37 1841.94,-103.37"/>
</g>
<!-- 3543add5&#45;1374&#45;4c64&#45;9789&#45;e07070280c0d -->
<g id="node10" class="node">
<title>3543add5&#45;1374&#45;4c64&#45;9789&#45;e07070280c0d</title>
<polygon fill="white" stroke="black" points="1782,-36 960,-36 960,0 1782,0 1782,-36"/>
<text text-anchor="middle" x="1371" y="-14.3" font-family="Helvetica,sans-Serif" font-size="14.00">▶ Run GitHub Actions for `convertPheno_client/src/code/views/conversion/ components/clinicalData/ClinicalData.jsx`</text>
</g>
<!-- c94279ca&#45;af6e&#45;4905&#45;a92d&#45;26e27ddf200c&#45;&gt;3543add5&#45;1374&#45;4c64&#45;9789&#45;e07070280c0d -->
<g id="edge5" class="edge">
<title>c94279ca&#45;af6e&#45;4905&#45;a92d&#45;26e27ddf200c&#45;&gt;3543add5&#45;1374&#45;4c64&#45;9789&#45;e07070280c0d</title>
<path fill="none" stroke="black" stroke-dasharray="5,2" d="M1371,-72.72C1371,-64.27 1371,-54.89 1371,-46.36"/>
<polygon fill="black" stroke="black" points="1374.5,-46.15 1371,-36.15 1367.5,-46.15 1374.5,-46.15"/>
</g>
<!-- c784ad93&#45;9eb1&#45;458a&#45;89d2&#45;cbcdaa558671 -->
<g id="node7" class="node">
<title>c784ad93&#45;9eb1&#45;458a&#45;89d2&#45;cbcdaa558671</title>
<ellipse fill="white" stroke="black" cx="3132" cy="-99.87" rx="354.02" ry="26.74"/>
<text text-anchor="middle" x="3132" y="-103.67" font-family="Helvetica,sans-Serif" font-size="14.00">▶ Modify</text>
<text text-anchor="middle" x="3132" y="-88.67" font-family="Helvetica,sans-Serif" font-size="14.00">convertPheno_client/src/code/views/conversion/hooks/finishedJobs.jsx</text>
</g>
<!-- 2e3ebad3&#45;c745&#45;401b&#45;bff2&#45;bf1bc614c17b&#45;&gt;c784ad93&#45;9eb1&#45;458a&#45;89d2&#45;cbcdaa558671 -->
<g id="edge8" class="edge">
<title>2e3ebad3&#45;c745&#45;401b&#45;bff2&#45;bf1bc614c17b&#45;&gt;c784ad93&#45;9eb1&#45;458a&#45;89d2&#45;cbcdaa558671</title>
<path fill="none" stroke="black" d="M2741.82,-99.87C2750.4,-99.87 2758.98,-99.87 2767.56,-99.87"/>
<polygon fill="black" stroke="black" points="2767.63,-103.37 2777.63,-99.87 2767.63,-96.37 2767.63,-103.37"/>
</g>
<!-- a9863bd7&#45;70ce&#45;49aa&#45;b3e3&#45;6b615ffc1ce5 -->
<g id="node11" class="node">
<title>a9863bd7&#45;70ce&#45;49aa&#45;b3e3&#45;6b615ffc1ce5</title>
<polygon fill="white" stroke="black" points="2707,-36 1887,-36 1887,0 2707,0 2707,-36"/>
<text text-anchor="middle" x="2297" y="-14.3" font-family="Helvetica,sans-Serif" font-size="14.00">▶ Run GitHub Actions for `convertPheno_client/src/code/views/conversion/ components/submission/Submission.jsx`</text>
</g>
<!-- 2e3ebad3&#45;c745&#45;401b&#45;bff2&#45;bf1bc614c17b&#45;&gt;a9863bd7&#45;70ce&#45;49aa&#45;b3e3&#45;6b615ffc1ce5 -->
<g id="edge7" class="edge">
<title>2e3ebad3&#45;c745&#45;401b&#45;bff2&#45;bf1bc614c17b&#45;&gt;a9863bd7&#45;70ce&#45;49aa&#45;b3e3&#45;6b615ffc1ce5</title>
<path fill="none" stroke="black" stroke-dasharray="5,2" d="M2297,-72.72C2297,-64.27 2297,-54.89 2297,-46.36"/>
<polygon fill="black" stroke="black" points="2300.5,-46.15 2297,-36.15 2293.5,-46.15 2300.5,-46.15"/>
</g>
<!-- c784ad93&#45;9eb1&#45;458a&#45;89d2&#45;cbcdaa558671&#45;&gt;end -->
<g id="edge11" class="edge">
<title>c784ad93&#45;9eb1&#45;458a&#45;89d2&#45;cbcdaa558671&#45;&gt;end</title>
<path fill="none" stroke="black" d="M3486.28,-99.87C3506.79,-99.87 3523.13,-99.87 3533.11,-99.87"/>
<polygon fill="black" stroke="black" points="3533.41,-103.37 3543.41,-99.87 3533.41,-96.37 3533.41,-103.37"/>
<text text-anchor="middle" x="3514.88" y="-106.67" font-family="Helvetica,sans-Serif" font-size="14.00">Finish</text>
</g>
<!-- 3ff52a0b&#45;0444&#45;4ff7&#45;bc2f&#45;ac274ce5aea9 -->
<g id="node12" class="node">
<title>3ff52a0b&#45;0444&#45;4ff7&#45;bc2f&#45;ac274ce5aea9</title>
<polygon fill="white" stroke="black" points="3478,-36 2786,-36 2786,0 3478,0 3478,-36"/>
<text text-anchor="middle" x="3132" y="-14.3" font-family="Helvetica,sans-Serif" font-size="14.00">▶ Run GitHub Actions for `convertPheno_client/src/code/views/conversion/hooks/finishedJobs.jsx`</text>
</g>
<!-- c784ad93&#45;9eb1&#45;458a&#45;89d2&#45;cbcdaa558671&#45;&gt;3ff52a0b&#45;0444&#45;4ff7&#45;bc2f&#45;ac274ce5aea9 -->
<g id="edge9" class="edge">
<title>c784ad93&#45;9eb1&#45;458a&#45;89d2&#45;cbcdaa558671&#45;&gt;3ff52a0b&#45;0444&#45;4ff7&#45;bc2f&#45;ac274ce5aea9</title>
<path fill="none" stroke="black" stroke-dasharray="5,2" d="M3132,-72.72C3132,-64.27 3132,-54.89 3132,-46.36"/>
<polygon fill="black" stroke="black" points="3135.5,-46.15 3132,-36.15 3128.5,-46.15 3135.5,-46.15"/>
</g>
</g>
</svg>
