<?xml version="1.0" encoding="UTF-8" standalone="no"?>
<!DOCTYPE svg PUBLIC "-//W3C//DTD SVG 1.1//EN"
 "http://www.w3.org/Graphics/SVG/1.1/DTD/svg11.dtd">
<!-- Generated by graphviz version 2.43.0 (0)
 -->
<!-- Title: %3 Pages: 1 -->
<svg width="3614pt" height="238pt"
 viewBox="0.00 0.00 3614.00 237.74" xmlns="http://www.w3.org/2000/svg" xmlns:xlink="http://www.w3.org/1999/xlink">
<g id="graph0" class="graph" transform="scale(1 1) rotate(0) translate(36 201.74)">
<title>%3</title>
<polygon fill="dimgray" stroke="transparent" points="-36,36 -36,-201.74 3578,-201.74 3578,36 -36,36"/>
<text text-anchor="middle" x="1771" y="-150.54" font-family="Helvetica,sans-Serif" font-size="14.00">Sweep&#39;s Plan &amp; Progress</text>
<!-- start -->
<g id="node1" class="node">
<title>start</title>
</g>
<!-- 94ee330f&#45;40b8&#45;47b1&#45;a807&#45;e78a23165633 -->
<g id="node3" class="node">
<title>94ee330f&#45;40b8&#45;47b1&#45;a807&#45;e78a23165633</title>
<ellipse fill="yellow" stroke="black" cx="249.5" cy="-99.87" rx="177.47" ry="26.74"/>
<text text-anchor="middle" x="249.5" y="-103.67" font-family="Helvetica,sans-Serif" font-size="14.00">⋯ Modify</text>
<text text-anchor="middle" x="249.5" y="-88.67" font-family="Helvetica,sans-Serif" font-size="14.00">convertPheno_client/package.json</text>
</g>
<!-- start&#45;&gt;94ee330f&#45;40b8&#45;47b1&#45;a807&#45;e78a23165633 -->
<g id="edge10" class="edge">
<title>start&#45;&gt;94ee330f&#45;40b8&#45;47b1&#45;a807&#45;e78a23165633</title>
<path fill="none" stroke="black" d="M21.16,-99.87C24.48,-99.87 40.15,-99.87 61.86,-99.87"/>
<polygon fill="black" stroke="black" points="61.87,-103.37 71.87,-99.87 61.87,-96.37 61.87,-103.37"/>
<text text-anchor="middle" x="46.51" y="-106.67" font-family="Helvetica,sans-Serif" font-size="14.00">Start</text>
</g>
<!-- end -->
<g id="node2" class="node">
<title>end</title>
</g>
<!-- 1706f2e1&#45;d6aa&#45;495e&#45;9c9d&#45;6dacececa578 -->
<g id="node4" class="node">
<title>1706f2e1&#45;d6aa&#45;495e&#45;9c9d&#45;6dacececa578</title>
<ellipse fill="white" stroke="black" cx="688.5" cy="-99.87" rx="197.98" ry="26.74"/>
<text text-anchor="middle" x="688.5" y="-103.67" font-family="Helvetica,sans-Serif" font-size="14.00">▶ Modify</text>
<text text-anchor="middle" x="688.5" y="-88.67" font-family="Helvetica,sans-Serif" font-size="14.00">convertPheno_client/src/code/Main.jsx</text>
</g>
<!-- 94ee330f&#45;40b8&#45;47b1&#45;a807&#45;e78a23165633&#45;&gt;1706f2e1&#45;d6aa&#45;495e&#45;9c9d&#45;6dacececa578 -->
<g id="edge2" class="edge">
<title>94ee330f&#45;40b8&#45;47b1&#45;a807&#45;e78a23165633&#45;&gt;1706f2e1&#45;d6aa&#45;495e&#45;9c9d&#45;6dacececa578</title>
<path fill="none" stroke="black" d="M426.99,-99.87C444.63,-99.87 462.28,-99.87 479.93,-99.87"/>
<polygon fill="black" stroke="black" points="480.32,-103.37 490.32,-99.87 480.32,-96.37 480.32,-103.37"/>
</g>
<!-- 7c5d7b31&#45;f2d9&#45;46fe&#45;8fcd&#45;2137879a7479 -->
<g id="node8" class="node">
<title>7c5d7b31&#45;f2d9&#45;46fe&#45;8fcd&#45;2137879a7479</title>
<polygon fill="white" stroke="black" points="443,-36 0,-36 0,0 443,0 443,-36"/>
<text text-anchor="middle" x="221.5" y="-14.3" font-family="Helvetica,sans-Serif" font-size="14.00">▶ Run GitHub Actions for `convertPheno_client/package.json`</text>
</g>
<!-- 94ee330f&#45;40b8&#45;47b1&#45;a807&#45;e78a23165633&#45;&gt;7c5d7b31&#45;f2d9&#45;46fe&#45;8fcd&#45;2137879a7479 -->
<g id="edge1" class="edge">
<title>94ee330f&#45;40b8&#45;47b1&#45;a807&#45;e78a23165633&#45;&gt;7c5d7b31&#45;f2d9&#45;46fe&#45;8fcd&#45;2137879a7479</title>
<path fill="none" stroke="black" stroke-dasharray="5,2" d="M240.33,-72.72C237.31,-64.08 233.94,-54.47 230.89,-45.79"/>
<polygon fill="black" stroke="black" points="234.12,-44.43 227.51,-36.15 227.52,-46.74 234.12,-44.43"/>
</g>
<!-- c94279ca&#45;af6e&#45;4905&#45;a92d&#45;26e27ddf200c -->
<g id="node5" class="node">
<title>c94279ca&#45;af6e&#45;4905&#45;a92d&#45;26e27ddf200c</title>
<ellipse fill="white" stroke="black" cx="1368.5" cy="-99.87" rx="446.37" ry="26.74"/>
<text text-anchor="middle" x="1368.5" y="-103.67" font-family="Helvetica,sans-Serif" font-size="14.00">▶ Modify</text>
<text text-anchor="middle" x="1368.5" y="-88.67" font-family="Helvetica,sans-Serif" font-size="14.00">convertPheno_client/src/code/views/conversion/ components/clinicalData/ClinicalData.jsx</text>
</g>
<!-- 1706f2e1&#45;d6aa&#45;495e&#45;9c9d&#45;6dacececa578&#45;&gt;c94279ca&#45;af6e&#45;4905&#45;a92d&#45;26e27ddf200c -->
<g id="edge4" class="edge">
<title>1706f2e1&#45;d6aa&#45;495e&#45;9c9d&#45;6dacececa578&#45;&gt;c94279ca&#45;af6e&#45;4905&#45;a92d&#45;26e27ddf200c</title>
<path fill="none" stroke="black" d="M886.72,-99.87C895.08,-99.87 903.45,-99.87 911.81,-99.87"/>
<polygon fill="black" stroke="black" points="912.01,-103.37 922.01,-99.87 912.01,-96.37 912.01,-103.37"/>
</g>
<!-- d060856d&#45;152d&#45;4522&#45;8921&#45;ac84f638d0ba -->
<g id="node9" class="node">
<title>d060856d&#45;152d&#45;4522&#45;8921&#45;ac84f638d0ba</title>
<polygon fill="white" stroke="black" points="932,-36 461,-36 461,0 932,0 932,-36"/>
<text text-anchor="middle" x="696.5" y="-14.3" font-family="Helvetica,sans-Serif" font-size="14.00">▶ Run GitHub Actions for `convertPheno_client/src/code/Main.jsx`</text>
</g>
<!-- 1706f2e1&#45;d6aa&#45;495e&#45;9c9d&#45;6dacececa578&#45;&gt;d060856d&#45;152d&#45;4522&#45;8921&#45;ac84f638d0ba -->
<g id="edge3" class="edge">
<title>1706f2e1&#45;d6aa&#45;495e&#45;9c9d&#45;6dacececa578&#45;&gt;d060856d&#45;152d&#45;4522&#45;8921&#45;ac84f638d0ba</title>
<path fill="none" stroke="black" stroke-dasharray="5,2" d="M691.12,-72.72C691.97,-64.27 692.91,-54.89 693.76,-46.36"/>
<polygon fill="black" stroke="black" points="697.27,-46.45 694.78,-36.15 690.3,-45.75 697.27,-46.45"/>
</g>
<!-- 2e3ebad3&#45;c745&#45;401b&#45;bff2&#45;bf1bc614c17b -->
<g id="node6" class="node">
<title>2e3ebad3&#45;c745&#45;401b&#45;bff2&#45;bf1bc614c17b</title>
<ellipse fill="white" stroke="black" cx="2294.5" cy="-99.87" rx="444.54" ry="26.74"/>
<text text-anchor="middle" x="2294.5" y="-103.67" font-family="Helvetica,sans-Serif" font-size="14.00">▶ Modify</text>
<text text-anchor="middle" x="2294.5" y="-88.67" font-family="Helvetica,sans-Serif" font-size="14.00">convertPheno_client/src/code/views/conversion/ components/submission/Submission.jsx</text>
</g>
<!-- c94279ca&#45;af6e&#45;4905&#45;a92d&#45;26e27ddf200c&#45;&gt;2e3ebad3&#45;c745&#45;401b&#45;bff2&#45;bf1bc614c17b -->
<g id="edge6" class="edge">
<title>c94279ca&#45;af6e&#45;4905&#45;a92d&#45;26e27ddf200c&#45;&gt;2e3ebad3&#45;c745&#45;401b&#45;bff2&#45;bf1bc614c17b</title>
<path fill="none" stroke="black" d="M1814.77,-99.87C1822.99,-99.87 1831.2,-99.87 1839.42,-99.87"/>
<polygon fill="black" stroke="black" points="1839.44,-103.37 1849.44,-99.87 1839.44,-96.37 1839.44,-103.37"/>
</g>
<!-- 3543add5&#45;1374&#45;4c64&#45;9789&#45;e07070280c0d -->
<g id="node10" class="node">
<title>3543add5&#45;1374&#45;4c64&#45;9789&#45;e07070280c0d</title>
<polygon fill="white" stroke="black" points="1779.5,-36 957.5,-36 957.5,0 1779.5,0 1779.5,-36"/>
<text text-anchor="middle" x="1368.5" y="-14.3" font-family="Helvetica,sans-Serif" font-size="14.00">▶ Run GitHub Actions for `convertPheno_client/src/code/views/conversion/ components/clinicalData/ClinicalData.jsx`</text>
</g>
<!-- c94279ca&#45;af6e&#45;4905&#45;a92d&#45;26e27ddf200c&#45;&gt;3543add5&#45;1374&#45;4c64&#45;9789&#45;e07070280c0d -->
<g id="edge5" class="edge">
<title>c94279ca&#45;af6e&#45;4905&#45;a92d&#45;26e27ddf200c&#45;&gt;3543add5&#45;1374&#45;4c64&#45;9789&#45;e07070280c0d</title>
<path fill="none" stroke="black" stroke-dasharray="5,2" d="M1368.5,-72.72C1368.5,-64.27 1368.5,-54.89 1368.5,-46.36"/>
<polygon fill="black" stroke="black" points="1372,-46.15 1368.5,-36.15 1365,-46.15 1372,-46.15"/>
</g>
<!-- c784ad93&#45;9eb1&#45;458a&#45;89d2&#45;cbcdaa558671 -->
<g id="node7" class="node">
<title>c784ad93&#45;9eb1&#45;458a&#45;89d2&#45;cbcdaa558671</title>
<ellipse fill="white" stroke="black" cx="3129.5" cy="-99.87" rx="354.02" ry="26.74"/>
<text text-anchor="middle" x="3129.5" y="-103.67" font-family="Helvetica,sans-Serif" font-size="14.00">▶ Modify</text>
<text text-anchor="middle" x="3129.5" y="-88.67" font-family="Helvetica,sans-Serif" font-size="14.00">convertPheno_client/src/code/views/conversion/hooks/finishedJobs.jsx</text>
</g>
<!-- 2e3ebad3&#45;c745&#45;401b&#45;bff2&#45;bf1bc614c17b&#45;&gt;c784ad93&#45;9eb1&#45;458a&#45;89d2&#45;cbcdaa558671 -->
<g id="edge8" class="edge">
<title>2e3ebad3&#45;c745&#45;401b&#45;bff2&#45;bf1bc614c17b&#45;&gt;c784ad93&#45;9eb1&#45;458a&#45;89d2&#45;cbcdaa558671</title>
<path fill="none" stroke="black" d="M2739.32,-99.87C2747.9,-99.87 2756.48,-99.87 2765.06,-99.87"/>
<polygon fill="black" stroke="black" points="2765.13,-103.37 2775.13,-99.87 2765.13,-96.37 2765.13,-103.37"/>
</g>
<!-- a9863bd7&#45;70ce&#45;49aa&#45;b3e3&#45;6b615ffc1ce5 -->
<g id="node11" class="node">
<title>a9863bd7&#45;70ce&#45;49aa&#45;b3e3&#45;6b615ffc1ce5</title>
<polygon fill="white" stroke="black" points="2704.5,-36 1884.5,-36 1884.5,0 2704.5,0 2704.5,-36"/>
<text text-anchor="middle" x="2294.5" y="-14.3" font-family="Helvetica,sans-Serif" font-size="14.00">▶ Run GitHub Actions for `convertPheno_client/src/code/views/conversion/ components/submission/Submission.jsx`</text>
</g>
<!-- 2e3ebad3&#45;c745&#45;401b&#45;bff2&#45;bf1bc614c17b&#45;&gt;a9863bd7&#45;70ce&#45;49aa&#45;b3e3&#45;6b615ffc1ce5 -->
<g id="edge7" class="edge">
<title>2e3ebad3&#45;c745&#45;401b&#45;bff2&#45;bf1bc614c17b&#45;&gt;a9863bd7&#45;70ce&#45;49aa&#45;b3e3&#45;6b615ffc1ce5</title>
<path fill="none" stroke="black" stroke-dasharray="5,2" d="M2294.5,-72.72C2294.5,-64.27 2294.5,-54.89 2294.5,-46.36"/>
<polygon fill="black" stroke="black" points="2298,-46.15 2294.5,-36.15 2291,-46.15 2298,-46.15"/>
</g>
<!-- c784ad93&#45;9eb1&#45;458a&#45;89d2&#45;cbcdaa558671&#45;&gt;end -->
<g id="edge11" class="edge">
<title>c784ad93&#45;9eb1&#45;458a&#45;89d2&#45;cbcdaa558671&#45;&gt;end</title>
<path fill="none" stroke="black" d="M3483.78,-99.87C3504.29,-99.87 3520.63,-99.87 3530.61,-99.87"/>
<polygon fill="black" stroke="black" points="3530.91,-103.37 3540.91,-99.87 3530.91,-96.37 3530.91,-103.37"/>
<text text-anchor="middle" x="3512.38" y="-106.67" font-family="Helvetica,sans-Serif" font-size="14.00">Finish</text>
</g>
<!-- 3ff52a0b&#45;0444&#45;4ff7&#45;bc2f&#45;ac274ce5aea9 -->
<g id="node12" class="node">
<title>3ff52a0b&#45;0444&#45;4ff7&#45;bc2f&#45;ac274ce5aea9</title>
<polygon fill="white" stroke="black" points="3475.5,-36 2783.5,-36 2783.5,0 3475.5,0 3475.5,-36"/>
<text text-anchor="middle" x="3129.5" y="-14.3" font-family="Helvetica,sans-Serif" font-size="14.00">▶ Run GitHub Actions for `convertPheno_client/src/code/views/conversion/hooks/finishedJobs.jsx`</text>
</g>
<!-- c784ad93&#45;9eb1&#45;458a&#45;89d2&#45;cbcdaa558671&#45;&gt;3ff52a0b&#45;0444&#45;4ff7&#45;bc2f&#45;ac274ce5aea9 -->
<g id="edge9" class="edge">
<title>c784ad93&#45;9eb1&#45;458a&#45;89d2&#45;cbcdaa558671&#45;&gt;3ff52a0b&#45;0444&#45;4ff7&#45;bc2f&#45;ac274ce5aea9</title>
<path fill="none" stroke="black" stroke-dasharray="5,2" d="M3129.5,-72.72C3129.5,-64.27 3129.5,-54.89 3129.5,-46.36"/>
<polygon fill="black" stroke="black" points="3133,-46.15 3129.5,-36.15 3126,-46.15 3133,-46.15"/>
</g>
</g>
</svg>
