<?xml version="1.0" encoding="UTF-8" standalone="no"?>
<!DOCTYPE svg PUBLIC "-//W3C//DTD SVG 1.1//EN"
 "http://www.w3.org/Graphics/SVG/1.1/DTD/svg11.dtd">
<!-- Generated by graphviz version 2.43.0 (0)
 -->
<!-- Title: %3 Pages: 1 -->
<svg width="3618pt" height="238pt"
 viewBox="0.00 0.00 3617.50 237.74" xmlns="http://www.w3.org/2000/svg" xmlns:xlink="http://www.w3.org/1999/xlink">
<g id="graph0" class="graph" transform="scale(1 1) rotate(0) translate(36 201.74)">
<title>%3</title>
<polygon fill="dimgray" stroke="transparent" points="-36,36 -36,-201.74 3581.5,-201.74 3581.5,36 -36,36"/>
<text text-anchor="middle" x="1772.75" y="-150.54" font-family="Helvetica,sans-Serif" font-size="14.00">Sweep&#39;s Plan &amp; Progress</text>
<!-- start -->
<g id="node1" class="node">
<title>start</title>
</g>
<!-- 94ee330f&#45;40b8&#45;47b1&#45;a807&#45;e78a23165633 -->
<g id="node3" class="node">
<title>94ee330f&#45;40b8&#45;47b1&#45;a807&#45;e78a23165633</title>
<ellipse fill="#0ee832" stroke="black" cx="251" cy="-99.87" rx="177.47" ry="26.74"/>
<text text-anchor="middle" x="251" y="-103.67" font-family="Helvetica,sans-Serif" font-size="14.00">✓ Modify</text>
<text text-anchor="middle" x="251" y="-88.67" font-family="Helvetica,sans-Serif" font-size="14.00">convertPheno_client/package.json</text>
</g>
<!-- start&#45;&gt;94ee330f&#45;40b8&#45;47b1&#45;a807&#45;e78a23165633 -->
<g id="edge10" class="edge">
<title>start&#45;&gt;94ee330f&#45;40b8&#45;47b1&#45;a807&#45;e78a23165633</title>
<path fill="none" stroke="black" d="M22.66,-99.87C25.98,-99.87 41.65,-99.87 63.36,-99.87"/>
<polygon fill="black" stroke="black" points="63.37,-103.37 73.37,-99.87 63.37,-96.37 63.37,-103.37"/>
<text text-anchor="middle" x="48.01" y="-106.67" font-family="Helvetica,sans-Serif" font-size="14.00">Start</text>
</g>
<!-- end -->
<g id="node2" class="node">
<title>end</title>
</g>
<!-- 1706f2e1&#45;d6aa&#45;495e&#45;9c9d&#45;6dacececa578 -->
<g id="node4" class="node">
<title>1706f2e1&#45;d6aa&#45;495e&#45;9c9d&#45;6dacececa578</title>
<ellipse fill="#0ee832" stroke="black" cx="692" cy="-99.87" rx="197.98" ry="26.74"/>
<text text-anchor="middle" x="692" y="-103.67" font-family="Helvetica,sans-Serif" font-size="14.00">✓ Modify</text>
<text text-anchor="middle" x="692" y="-88.67" font-family="Helvetica,sans-Serif" font-size="14.00">convertPheno_client/src/code/Main.jsx</text>
</g>
<!-- 94ee330f&#45;40b8&#45;47b1&#45;a807&#45;e78a23165633&#45;&gt;1706f2e1&#45;d6aa&#45;495e&#45;9c9d&#45;6dacececa578 -->
<g id="edge2" class="edge">
<title>94ee330f&#45;40b8&#45;47b1&#45;a807&#45;e78a23165633&#45;&gt;1706f2e1&#45;d6aa&#45;495e&#45;9c9d&#45;6dacececa578</title>
<path fill="none" stroke="black" d="M428.86,-99.87C447.15,-99.87 465.43,-99.87 483.72,-99.87"/>
<polygon fill="black" stroke="black" points="483.88,-103.37 493.88,-99.87 483.88,-96.37 483.88,-103.37"/>
</g>
<!-- 7c5d7b31&#45;f2d9&#45;46fe&#45;8fcd&#45;2137879a7479 -->
<g id="node8" class="node">
<title>7c5d7b31&#45;f2d9&#45;46fe&#45;8fcd&#45;2137879a7479</title>
<polygon fill="#0ee832" stroke="black" points="444,-36 0,-36 0,0 444,0 444,-36"/>
<text text-anchor="middle" x="222" y="-14.3" font-family="Helvetica,sans-Serif" font-size="14.00">✓ Run GitHub Actions for `convertPheno_client/package.json`</text>
</g>
<!-- 94ee330f&#45;40b8&#45;47b1&#45;a807&#45;e78a23165633&#45;&gt;7c5d7b31&#45;f2d9&#45;46fe&#45;8fcd&#45;2137879a7479 -->
<g id="edge1" class="edge">
<title>94ee330f&#45;40b8&#45;47b1&#45;a807&#45;e78a23165633&#45;&gt;7c5d7b31&#45;f2d9&#45;46fe&#45;8fcd&#45;2137879a7479</title>
<path fill="none" stroke="black" stroke-dasharray="5,2" d="M241.5,-72.72C238.37,-64.08 234.88,-54.47 231.73,-45.79"/>
<polygon fill="black" stroke="black" points="234.93,-44.35 228.23,-36.15 228.35,-46.74 234.93,-44.35"/>
</g>
<!-- c94279ca&#45;af6e&#45;4905&#45;a92d&#45;26e27ddf200c -->
<g id="node5" class="node">
<title>c94279ca&#45;af6e&#45;4905&#45;a92d&#45;26e27ddf200c</title>
<ellipse fill="#0ee832" stroke="black" cx="1372" cy="-99.87" rx="446.37" ry="26.74"/>
<text text-anchor="middle" x="1372" y="-103.67" font-family="Helvetica,sans-Serif" font-size="14.00">✓ Modify</text>
<text text-anchor="middle" x="1372" y="-88.67" font-family="Helvetica,sans-Serif" font-size="14.00">convertPheno_client/src/code/views/conversion/ components/clinicalData/ClinicalData.jsx</text>
</g>
<!-- 1706f2e1&#45;d6aa&#45;495e&#45;9c9d&#45;6dacececa578&#45;&gt;c94279ca&#45;af6e&#45;4905&#45;a92d&#45;26e27ddf200c -->
<g id="edge4" class="edge">
<title>1706f2e1&#45;d6aa&#45;495e&#45;9c9d&#45;6dacececa578&#45;&gt;c94279ca&#45;af6e&#45;4905&#45;a92d&#45;26e27ddf200c</title>
<path fill="none" stroke="black" d="M890.22,-99.87C898.58,-99.87 906.95,-99.87 915.31,-99.87"/>
<polygon fill="black" stroke="black" points="915.51,-103.37 925.51,-99.87 915.51,-96.37 915.51,-103.37"/>
</g>
<!-- d060856d&#45;152d&#45;4522&#45;8921&#45;ac84f638d0ba -->
<g id="node9" class="node">
<title>d060856d&#45;152d&#45;4522&#45;8921&#45;ac84f638d0ba</title>
<polygon fill="#0ee832" stroke="black" points="934.5,-36 461.5,-36 461.5,0 934.5,0 934.5,-36"/>
<text text-anchor="middle" x="698" y="-14.3" font-family="Helvetica,sans-Serif" font-size="14.00">✓ Run GitHub Actions for `convertPheno_client/src/code/Main.jsx`</text>
</g>
<!-- 1706f2e1&#45;d6aa&#45;495e&#45;9c9d&#45;6dacececa578&#45;&gt;d060856d&#45;152d&#45;4522&#45;8921&#45;ac84f638d0ba -->
<g id="edge3" class="edge">
<title>1706f2e1&#45;d6aa&#45;495e&#45;9c9d&#45;6dacececa578&#45;&gt;d060856d&#45;152d&#45;4522&#45;8921&#45;ac84f638d0ba</title>
<path fill="none" stroke="black" stroke-dasharray="5,2" d="M693.96,-72.72C694.6,-64.27 695.3,-54.89 695.94,-46.36"/>
<polygon fill="black" stroke="black" points="699.45,-46.38 696.71,-36.15 692.47,-45.86 699.45,-46.38"/>
</g>
<!-- 2e3ebad3&#45;c745&#45;401b&#45;bff2&#45;bf1bc614c17b -->
<g id="node6" class="node">
<title>2e3ebad3&#45;c745&#45;401b&#45;bff2&#45;bf1bc614c17b</title>
<ellipse fill="white" stroke="black" cx="2298" cy="-99.87" rx="444.54" ry="26.74"/>
<text text-anchor="middle" x="2298" y="-103.67" font-family="Helvetica,sans-Serif" font-size="14.00">▶ Modify</text>
<text text-anchor="middle" x="2298" y="-88.67" font-family="Helvetica,sans-Serif" font-size="14.00">convertPheno_client/src/code/views/conversion/ components/submission/Submission.jsx</text>
</g>
<!-- c94279ca&#45;af6e&#45;4905&#45;a92d&#45;26e27ddf200c&#45;&gt;2e3ebad3&#45;c745&#45;401b&#45;bff2&#45;bf1bc614c17b -->
<g id="edge6" class="edge">
<title>c94279ca&#45;af6e&#45;4905&#45;a92d&#45;26e27ddf200c&#45;&gt;2e3ebad3&#45;c745&#45;401b&#45;bff2&#45;bf1bc614c17b</title>
<path fill="none" stroke="black" d="M1818.27,-99.87C1826.49,-99.87 1834.7,-99.87 1842.92,-99.87"/>
<polygon fill="black" stroke="black" points="1842.94,-103.37 1852.94,-99.87 1842.94,-96.37 1842.94,-103.37"/>
</g>
<!-- 3543add5&#45;1374&#45;4c64&#45;9789&#45;e07070280c0d -->
<g id="node10" class="node">
<title>3543add5&#45;1374&#45;4c64&#45;9789&#45;e07070280c0d</title>
<polygon fill="yellow" stroke="black" points="1785,-36 959,-36 959,0 1785,0 1785,-36"/>
<text text-anchor="middle" x="1372" y="-14.3" font-family="Helvetica,sans-Serif" font-size="14.00">⋯ Run GitHub Actions for `convertPheno_client/src/code/views/conversion/ components/clinicalData/ClinicalData.jsx`</text>
</g>
<!-- c94279ca&#45;af6e&#45;4905&#45;a92d&#45;26e27ddf200c&#45;&gt;3543add5&#45;1374&#45;4c64&#45;9789&#45;e07070280c0d -->
<g id="edge5" class="edge">
<title>c94279ca&#45;af6e&#45;4905&#45;a92d&#45;26e27ddf200c&#45;&gt;3543add5&#45;1374&#45;4c64&#45;9789&#45;e07070280c0d</title>
<path fill="none" stroke="black" stroke-dasharray="5,2" d="M1372,-72.72C1372,-64.27 1372,-54.89 1372,-46.36"/>
<polygon fill="black" stroke="black" points="1375.5,-46.15 1372,-36.15 1368.5,-46.15 1375.5,-46.15"/>
</g>
<!-- c784ad93&#45;9eb1&#45;458a&#45;89d2&#45;cbcdaa558671 -->
<g id="node7" class="node">
<title>c784ad93&#45;9eb1&#45;458a&#45;89d2&#45;cbcdaa558671</title>
<ellipse fill="white" stroke="black" cx="3133" cy="-99.87" rx="354.02" ry="26.74"/>
<text text-anchor="middle" x="3133" y="-103.67" font-family="Helvetica,sans-Serif" font-size="14.00">▶ Modify</text>
<text text-anchor="middle" x="3133" y="-88.67" font-family="Helvetica,sans-Serif" font-size="14.00">convertPheno_client/src/code/views/conversion/hooks/finishedJobs.jsx</text>
</g>
<!-- 2e3ebad3&#45;c745&#45;401b&#45;bff2&#45;bf1bc614c17b&#45;&gt;c784ad93&#45;9eb1&#45;458a&#45;89d2&#45;cbcdaa558671 -->
<g id="edge8" class="edge">
<title>2e3ebad3&#45;c745&#45;401b&#45;bff2&#45;bf1bc614c17b&#45;&gt;c784ad93&#45;9eb1&#45;458a&#45;89d2&#45;cbcdaa558671</title>
<path fill="none" stroke="black" d="M2742.82,-99.87C2751.4,-99.87 2759.98,-99.87 2768.56,-99.87"/>
<polygon fill="black" stroke="black" points="2768.63,-103.37 2778.63,-99.87 2768.63,-96.37 2768.63,-103.37"/>
</g>
<!-- a9863bd7&#45;70ce&#45;49aa&#45;b3e3&#45;6b615ffc1ce5 -->
<g id="node11" class="node">
<title>a9863bd7&#45;70ce&#45;49aa&#45;b3e3&#45;6b615ffc1ce5</title>
<polygon fill="white" stroke="black" points="2708,-36 1888,-36 1888,0 2708,0 2708,-36"/>
<text text-anchor="middle" x="2298" y="-14.3" font-family="Helvetica,sans-Serif" font-size="14.00">▶ Run GitHub Actions for `convertPheno_client/src/code/views/conversion/ components/submission/Submission.jsx`</text>
</g>
<!-- 2e3ebad3&#45;c745&#45;401b&#45;bff2&#45;bf1bc614c17b&#45;&gt;a9863bd7&#45;70ce&#45;49aa&#45;b3e3&#45;6b615ffc1ce5 -->
<g id="edge7" class="edge">
<title>2e3ebad3&#45;c745&#45;401b&#45;bff2&#45;bf1bc614c17b&#45;&gt;a9863bd7&#45;70ce&#45;49aa&#45;b3e3&#45;6b615ffc1ce5</title>
<path fill="none" stroke="black" stroke-dasharray="5,2" d="M2298,-72.72C2298,-64.27 2298,-54.89 2298,-46.36"/>
<polygon fill="black" stroke="black" points="2301.5,-46.15 2298,-36.15 2294.5,-46.15 2301.5,-46.15"/>
</g>
<!-- c784ad93&#45;9eb1&#45;458a&#45;89d2&#45;cbcdaa558671&#45;&gt;end -->
<g id="edge11" class="edge">
<title>c784ad93&#45;9eb1&#45;458a&#45;89d2&#45;cbcdaa558671&#45;&gt;end</title>
<path fill="none" stroke="black" d="M3487.28,-99.87C3507.79,-99.87 3524.13,-99.87 3534.11,-99.87"/>
<polygon fill="black" stroke="black" points="3534.41,-103.37 3544.41,-99.87 3534.41,-96.37 3534.41,-103.37"/>
<text text-anchor="middle" x="3515.88" y="-106.67" font-family="Helvetica,sans-Serif" font-size="14.00">Finish</text>
</g>
<!-- 3ff52a0b&#45;0444&#45;4ff7&#45;bc2f&#45;ac274ce5aea9 -->
<g id="node12" class="node">
<title>3ff52a0b&#45;0444&#45;4ff7&#45;bc2f&#45;ac274ce5aea9</title>
<polygon fill="white" stroke="black" points="3479,-36 2787,-36 2787,0 3479,0 3479,-36"/>
<text text-anchor="middle" x="3133" y="-14.3" font-family="Helvetica,sans-Serif" font-size="14.00">▶ Run GitHub Actions for `convertPheno_client/src/code/views/conversion/hooks/finishedJobs.jsx`</text>
</g>
<!-- c784ad93&#45;9eb1&#45;458a&#45;89d2&#45;cbcdaa558671&#45;&gt;3ff52a0b&#45;0444&#45;4ff7&#45;bc2f&#45;ac274ce5aea9 -->
<g id="edge9" class="edge">
<title>c784ad93&#45;9eb1&#45;458a&#45;89d2&#45;cbcdaa558671&#45;&gt;3ff52a0b&#45;0444&#45;4ff7&#45;bc2f&#45;ac274ce5aea9</title>
<path fill="none" stroke="black" stroke-dasharray="5,2" d="M3133,-72.72C3133,-64.27 3133,-54.89 3133,-46.36"/>
<polygon fill="black" stroke="black" points="3136.5,-46.15 3133,-36.15 3129.5,-46.15 3136.5,-46.15"/>
</g>
</g>
</svg>
