<?xml version="1.0" encoding="UTF-8" standalone="no"?>
<!DOCTYPE svg PUBLIC "-//W3C//DTD SVG 1.1//EN"
 "http://www.w3.org/Graphics/SVG/1.1/DTD/svg11.dtd">
<!-- Generated by graphviz version 2.43.0 (0)
 -->
<!-- Title: %3 Pages: 1 -->
<svg width="4634pt" height="238pt"
 viewBox="0.00 0.00 4634.00 237.74" xmlns="http://www.w3.org/2000/svg" xmlns:xlink="http://www.w3.org/1999/xlink">
<g id="graph0" class="graph" transform="scale(1 1) rotate(0) translate(36 201.74)">
<title>%3</title>
<polygon fill="dimgray" stroke="transparent" points="-36,36 -36,-201.74 4598,-201.74 4598,36 -36,36"/>
<text text-anchor="middle" x="2281" y="-150.54" font-family="Helvetica,sans-Serif" font-size="14.00">Sweep&#39;s Plan &amp; Progress</text>
<!-- start -->
<g id="node1" class="node">
<title>start</title>
</g>
<!-- 8663ede1&#45;b49b&#45;49c0&#45;919a&#45;99d1f8a9026a -->
<g id="node3" class="node">
<title>8663ede1&#45;b49b&#45;49c0&#45;919a&#45;99d1f8a9026a</title>
<ellipse fill="#0ee832" stroke="black" cx="326.5" cy="-99.87" rx="273.8" ry="26.74"/>
<text text-anchor="middle" x="326.5" y="-103.67" font-family="Helvetica,sans-Serif" font-size="14.00">✓ Modify</text>
<text text-anchor="middle" x="326.5" y="-88.67" font-family="Helvetica,sans-Serif" font-size="14.00">convertPheno_server/server/config/general_config.py</text>
</g>
<!-- start&#45;&gt;8663ede1&#45;b49b&#45;49c0&#45;919a&#45;99d1f8a9026a -->
<g id="edge10" class="edge">
<title>start&#45;&gt;8663ede1&#45;b49b&#45;49c0&#45;919a&#45;99d1f8a9026a</title>
<path fill="none" stroke="black" d="M1.03,-99.87C4.03,-99.87 19.6,-99.87 42.43,-99.87"/>
<polygon fill="black" stroke="black" points="42.64,-103.37 52.64,-99.87 42.64,-96.37 42.64,-103.37"/>
<text text-anchor="middle" x="26.92" y="-106.67" font-family="Helvetica,sans-Serif" font-size="14.00">Start</text>
</g>
<!-- end -->
<g id="node2" class="node">
<title>end</title>
</g>
<!-- 68de902b&#45;35cc&#45;4656&#45;ab5a&#45;19db5147b9b7 -->
<g id="node4" class="node">
<title>68de902b&#45;35cc&#45;4656&#45;ab5a&#45;19db5147b9b7</title>
<ellipse fill="#0ee832" stroke="black" cx="847.5" cy="-99.87" rx="192.17" ry="26.74"/>
<text text-anchor="middle" x="847.5" y="-103.67" font-family="Helvetica,sans-Serif" font-size="14.00">✓ Create</text>
<text text-anchor="middle" x="847.5" y="-88.67" font-family="Helvetica,sans-Serif" font-size="14.00">convertPheno_server/server/main.py</text>
</g>
<!-- 8663ede1&#45;b49b&#45;49c0&#45;919a&#45;99d1f8a9026a&#45;&gt;68de902b&#45;35cc&#45;4656&#45;ab5a&#45;19db5147b9b7 -->
<g id="edge2" class="edge">
<title>8663ede1&#45;b49b&#45;49c0&#45;919a&#45;99d1f8a9026a&#45;&gt;68de902b&#45;35cc&#45;4656&#45;ab5a&#45;19db5147b9b7</title>
<path fill="none" stroke="black" d="M600.23,-99.87C615.01,-99.87 629.79,-99.87 644.57,-99.87"/>
<polygon fill="black" stroke="black" points="644.8,-103.37 654.8,-99.87 644.8,-96.37 644.8,-103.37"/>
</g>
<!-- af239d41&#45;2e46&#45;4e72&#45;a24d&#45;3d9202d6fff8 -->
<g id="node8" class="node">
<title>af239d41&#45;2e46&#45;4e72&#45;a24d&#45;3d9202d6fff8</title>
<polygon fill="#0ee832" stroke="black" points="606.5,-36 26.5,-36 26.5,0 606.5,0 606.5,-36"/>
<text text-anchor="middle" x="316.5" y="-14.3" font-family="Helvetica,sans-Serif" font-size="14.00">✓ Run GitHub Actions for `convertPheno_server/server/config/general_config.py`</text>
</g>
<!-- 8663ede1&#45;b49b&#45;49c0&#45;919a&#45;99d1f8a9026a&#45;&gt;af239d41&#45;2e46&#45;4e72&#45;a24d&#45;3d9202d6fff8 -->
<g id="edge1" class="edge">
<title>8663ede1&#45;b49b&#45;49c0&#45;919a&#45;99d1f8a9026a&#45;&gt;af239d41&#45;2e46&#45;4e72&#45;a24d&#45;3d9202d6fff8</title>
<path fill="none" stroke="black" stroke-dasharray="5,2" d="M323.23,-72.72C322.16,-64.18 320.97,-54.68 319.89,-46.08"/>
<polygon fill="black" stroke="black" points="323.36,-45.63 318.65,-36.15 316.42,-46.5 323.36,-45.63"/>
</g>
<!-- 1073ab86&#45;1286&#45;4cb1&#45;a34e&#45;1bfe8f56a411 -->
<g id="node5" class="node">
<title>1073ab86&#45;1286&#45;4cb1&#45;a34e&#45;1bfe8f56a411</title>
<ellipse fill="#0ee832" stroke="black" cx="1703.5" cy="-99.87" rx="628.74" ry="26.74"/>
<text text-anchor="middle" x="1703.5" y="-103.67" font-family="Helvetica,sans-Serif" font-size="14.00">✓ Modify</text>
<text text-anchor="middle" x="1703.5" y="-88.67" font-family="Helvetica,sans-Serif" font-size="14.00">convertPheno_client/src/code/views/conversion/ components/submission/components/fileMappingModal/FileMappingModal.jsx</text>
</g>
<!-- 68de902b&#45;35cc&#45;4656&#45;ab5a&#45;19db5147b9b7&#45;&gt;1073ab86&#45;1286&#45;4cb1&#45;a34e&#45;1bfe8f56a411 -->
<g id="edge4" class="edge">
<title>68de902b&#45;35cc&#45;4656&#45;ab5a&#45;19db5147b9b7&#45;&gt;1073ab86&#45;1286&#45;4cb1&#45;a34e&#45;1bfe8f56a411</title>
<path fill="none" stroke="black" d="M1040.18,-99.87C1048.4,-99.87 1056.61,-99.87 1064.82,-99.87"/>
<polygon fill="black" stroke="black" points="1064.84,-103.37 1074.84,-99.87 1064.84,-96.37 1064.84,-103.37"/>
</g>
<!-- 4256c923&#45;0be8&#45;4cc6&#45;ac8d&#45;cb3f41a1dfff -->
<g id="node9" class="node">
<title>4256c923&#45;0be8&#45;4cc6&#45;ac8d&#45;cb3f41a1dfff</title>
<polygon fill="#0ee832" stroke="black" points="1090,-36 625,-36 625,0 1090,0 1090,-36"/>
<text text-anchor="middle" x="857.5" y="-14.3" font-family="Helvetica,sans-Serif" font-size="14.00">✓ Run GitHub Actions for `convertPheno_server/server/main.py`</text>
</g>
<!-- 68de902b&#45;35cc&#45;4656&#45;ab5a&#45;19db5147b9b7&#45;&gt;4256c923&#45;0be8&#45;4cc6&#45;ac8d&#45;cb3f41a1dfff -->
<g id="edge3" class="edge">
<title>68de902b&#45;35cc&#45;4656&#45;ab5a&#45;19db5147b9b7&#45;&gt;4256c923&#45;0be8&#45;4cc6&#45;ac8d&#45;cb3f41a1dfff</title>
<path fill="none" stroke="black" stroke-dasharray="5,2" d="M850.77,-72.72C851.84,-64.18 853.03,-54.68 854.11,-46.08"/>
<polygon fill="black" stroke="black" points="857.58,-46.5 855.35,-36.15 850.64,-45.63 857.58,-46.5"/>
</g>
<!-- b8ec7f35&#45;3df1&#45;45db&#45;97ec&#45;357f98ccfbb5 -->
<g id="node6" class="node">
<title>b8ec7f35&#45;3df1&#45;45db&#45;97ec&#45;357f98ccfbb5</title>
<ellipse fill="white" stroke="black" cx="3148.5" cy="-99.87" rx="780.79" ry="26.74"/>
<text text-anchor="middle" x="3148.5" y="-103.67" font-family="Helvetica,sans-Serif" font-size="14.00">▶ Modify</text>
<text text-anchor="middle" x="3148.5" y="-88.67" font-family="Helvetica,sans-Serif" font-size="14.00">convertPheno_client/src/code/views/conversion/ components/submission/components/submissionForms/components/fileMappingModal/FileMappingModal.jsx</text>
</g>
<!-- 1073ab86&#45;1286&#45;4cb1&#45;a34e&#45;1bfe8f56a411&#45;&gt;b8ec7f35&#45;3df1&#45;45db&#45;97ec&#45;357f98ccfbb5 -->
<g id="edge6" class="edge">
<title>1073ab86&#45;1286&#45;4cb1&#45;a34e&#45;1bfe8f56a411&#45;&gt;b8ec7f35&#45;3df1&#45;45db&#45;97ec&#45;357f98ccfbb5</title>
<path fill="none" stroke="black" d="M2332.16,-99.87C2340.57,-99.87 2348.97,-99.87 2357.38,-99.87"/>
<polygon fill="black" stroke="black" points="2357.64,-103.37 2367.64,-99.87 2357.64,-96.37 2357.64,-103.37"/>
</g>
<!-- e0d7abd1&#45;2fb0&#45;4f1e&#45;9964&#45;dcccce50d5b3 -->
<g id="node10" class="node">
<title>e0d7abd1&#45;2fb0&#45;4f1e&#45;9964&#45;dcccce50d5b3</title>
<polygon fill="#0ee832" stroke="black" points="2244.5,-36 1162.5,-36 1162.5,0 2244.5,0 2244.5,-36"/>
<text text-anchor="middle" x="1703.5" y="-14.3" font-family="Helvetica,sans-Serif" font-size="14.00">✓ Run GitHub Actions for `convertPheno_client/src/code/views/conversion/ components/submission/components/fileMappingModal/FileMappingModal.jsx`</text>
</g>
<!-- 1073ab86&#45;1286&#45;4cb1&#45;a34e&#45;1bfe8f56a411&#45;&gt;e0d7abd1&#45;2fb0&#45;4f1e&#45;9964&#45;dcccce50d5b3 -->
<g id="edge5" class="edge">
<title>1073ab86&#45;1286&#45;4cb1&#45;a34e&#45;1bfe8f56a411&#45;&gt;e0d7abd1&#45;2fb0&#45;4f1e&#45;9964&#45;dcccce50d5b3</title>
<path fill="none" stroke="black" stroke-dasharray="5,2" d="M1703.5,-72.72C1703.5,-64.27 1703.5,-54.89 1703.5,-46.36"/>
<polygon fill="black" stroke="black" points="1707,-46.15 1703.5,-36.15 1700,-46.15 1707,-46.15"/>
</g>
<!-- efb69307&#45;511b&#45;4e3a&#45;8f81&#45;2f3c24fb4a27 -->
<g id="node7" class="node">
<title>efb69307&#45;511b&#45;4e3a&#45;8f81&#45;2f3c24fb4a27</title>
<ellipse fill="white" stroke="black" cx="4234.5" cy="-99.87" rx="269.32" ry="26.74"/>
<text text-anchor="middle" x="4234.5" y="-103.67" font-family="Helvetica,sans-Serif" font-size="14.00">▶ Create</text>
<text text-anchor="middle" x="4234.5" y="-88.67" font-family="Helvetica,sans-Serif" font-size="14.00">convertPheno_server/tests/test_convert_endpoint.py</text>
</g>
<!-- b8ec7f35&#45;3df1&#45;45db&#45;97ec&#45;357f98ccfbb5&#45;&gt;efb69307&#45;511b&#45;4e3a&#45;8f81&#45;2f3c24fb4a27 -->
<g id="edge8" class="edge">
<title>b8ec7f35&#45;3df1&#45;45db&#45;97ec&#45;357f98ccfbb5&#45;&gt;efb69307&#45;511b&#45;4e3a&#45;8f81&#45;2f3c24fb4a27</title>
<path fill="none" stroke="black" d="M3929.33,-99.87C3937.9,-99.87 3946.46,-99.87 3955.03,-99.87"/>
<polygon fill="black" stroke="black" points="3955.09,-103.37 3965.09,-99.87 3955.09,-96.37 3955.09,-103.37"/>
</g>
<!-- 6d9c8f0b&#45;5b3c&#45;413f&#45;8367&#45;0b672dc18134 -->
<g id="node11" class="node">
<title>6d9c8f0b&#45;5b3c&#45;413f&#45;8367&#45;0b672dc18134</title>
<polygon fill="white" stroke="black" points="3796,-36 2501,-36 2501,0 3796,0 3796,-36"/>
<text text-anchor="middle" x="3148.5" y="-14.3" font-family="Helvetica,sans-Serif" font-size="14.00">▶ Run GitHub Actions for `convertPheno_client/src/code/views/conversion/ components/submission/components/submissionForms/components/fileMappingModal/FileMappingModal.jsx`</text>
</g>
<!-- b8ec7f35&#45;3df1&#45;45db&#45;97ec&#45;357f98ccfbb5&#45;&gt;6d9c8f0b&#45;5b3c&#45;413f&#45;8367&#45;0b672dc18134 -->
<g id="edge7" class="edge">
<title>b8ec7f35&#45;3df1&#45;45db&#45;97ec&#45;357f98ccfbb5&#45;&gt;6d9c8f0b&#45;5b3c&#45;413f&#45;8367&#45;0b672dc18134</title>
<path fill="none" stroke="black" stroke-dasharray="5,2" d="M3148.5,-72.72C3148.5,-64.27 3148.5,-54.89 3148.5,-46.36"/>
<polygon fill="black" stroke="black" points="3152,-46.15 3148.5,-36.15 3145,-46.15 3152,-46.15"/>
</g>
<!-- efb69307&#45;511b&#45;4e3a&#45;8f81&#45;2f3c24fb4a27&#45;&gt;end -->
<g id="edge11" class="edge">
<title>efb69307&#45;511b&#45;4e3a&#45;8f81&#45;2f3c24fb4a27&#45;&gt;end</title>
<path fill="none" stroke="black" d="M4504.17,-99.87C4524.44,-99.87 4540.88,-99.87 4550.87,-99.87"/>
<polygon fill="black" stroke="black" points="4550.9,-103.37 4560.9,-99.87 4550.9,-96.37 4550.9,-103.37"/>
<text text-anchor="middle" x="4532.45" y="-106.67" font-family="Helvetica,sans-Serif" font-size="14.00">Finish</text>
</g>
<!-- e3457917&#45;032d&#45;43ab&#45;bdc2&#45;d4bba460ef0c -->
<g id="node12" class="node">
<title>e3457917&#45;032d&#45;43ab&#45;bdc2&#45;d4bba460ef0c</title>
<polygon fill="white" stroke="black" points="4520.5,-36 3948.5,-36 3948.5,0 4520.5,0 4520.5,-36"/>
<text text-anchor="middle" x="4234.5" y="-14.3" font-family="Helvetica,sans-Serif" font-size="14.00">▶ Run GitHub Actions for `convertPheno_server/tests/test_convert_endpoint.py`</text>
</g>
<!-- efb69307&#45;511b&#45;4e3a&#45;8f81&#45;2f3c24fb4a27&#45;&gt;e3457917&#45;032d&#45;43ab&#45;bdc2&#45;d4bba460ef0c -->
<g id="edge9" class="edge">
<title>efb69307&#45;511b&#45;4e3a&#45;8f81&#45;2f3c24fb4a27&#45;&gt;e3457917&#45;032d&#45;43ab&#45;bdc2&#45;d4bba460ef0c</title>
<path fill="none" stroke="black" stroke-dasharray="5,2" d="M4234.5,-72.72C4234.5,-64.27 4234.5,-54.89 4234.5,-46.36"/>
<polygon fill="black" stroke="black" points="4238,-46.15 4234.5,-36.15 4231,-46.15 4238,-46.15"/>
</g>
</g>
</svg>
