<?xml version="1.0" encoding="UTF-8" standalone="no"?>
<!DOCTYPE svg PUBLIC "-//W3C//DTD SVG 1.1//EN"
 "http://www.w3.org/Graphics/SVG/1.1/DTD/svg11.dtd">
<!-- Generated by graphviz version 2.43.0 (0)
 -->
<!-- Title: %3 Pages: 1 -->
<svg width="677pt" height="238pt"
 viewBox="0.00 0.00 677.00 237.74" xmlns="http://www.w3.org/2000/svg" xmlns:xlink="http://www.w3.org/1999/xlink">
<g id="graph0" class="graph" transform="scale(1 1) rotate(0) translate(36 201.74)">
<title>%3</title>
<polygon fill="dimgray" stroke="transparent" points="-36,36 -36,-201.74 641,-201.74 641,36 -36,36"/>
<text text-anchor="middle" x="302.5" y="-150.54" font-family="Helvetica,sans-Serif" font-size="14.00">Sweep&#39;s Plan &amp; Progress</text>
<!-- start -->
<g id="node1" class="node">
<title>start</title>
</g>
<!-- 590c50aa&#45;65d2&#45;4d15&#45;b861&#45;e1b16dc4413a -->
<g id="node3" class="node">
<title>590c50aa&#45;65d2&#45;4d15&#45;b861&#45;e1b16dc4413a</title>
<ellipse fill="#0ee832" stroke="black" cx="299.5" cy="-99.87" rx="247.47" ry="26.74"/>
<text text-anchor="middle" x="299.5" y="-103.67" font-family="Helvetica,sans-Serif" font-size="14.00">✓ Modify</text>
<text text-anchor="middle" x="299.5" y="-88.67" font-family="Helvetica,sans-Serif" font-size="14.00">convertPheno_server/server/apis/submission.py</text>
</g>
<!-- start&#45;&gt;590c50aa&#45;65d2&#45;4d15&#45;b861&#45;e1b16dc4413a -->
<g id="edge2" class="edge">
<title>start&#45;&gt;590c50aa&#45;65d2&#45;4d15&#45;b861&#45;e1b16dc4413a</title>
<path fill="none" stroke="black" d="M1.36,-99.87C5.03,-99.87 20.22,-99.87 41.95,-99.87"/>
<polygon fill="black" stroke="black" points="42.01,-103.37 52.01,-99.87 42.01,-96.37 42.01,-103.37"/>
<text text-anchor="middle" x="26.51" y="-106.67" font-family="Helvetica,sans-Serif" font-size="14.00">Start</text>
</g>
<!-- end -->
<g id="node2" class="node">
<title>end</title>
</g>
<!-- 590c50aa&#45;65d2&#45;4d15&#45;b861&#45;e1b16dc4413a&#45;&gt;end -->
<g id="edge3" class="edge">
<title>590c50aa&#45;65d2&#45;4d15&#45;b861&#45;e1b16dc4413a&#45;&gt;end</title>
<path fill="none" stroke="black" d="M547.13,-99.87C567.3,-99.87 583.77,-99.87 593.81,-99.87"/>
<polygon fill="black" stroke="black" points="593.89,-103.37 603.89,-99.87 593.89,-96.37 593.89,-103.37"/>
<text text-anchor="middle" x="575.49" y="-106.67" font-family="Helvetica,sans-Serif" font-size="14.00">Finish</text>
</g>
<!-- 3a6e4c8c&#45;b9fa&#45;4877&#45;87a5&#45;592e4634825c -->
<g id="node4" class="node">
<title>3a6e4c8c&#45;b9fa&#45;4877&#45;87a5&#45;592e4634825c</title>
<polygon fill="#0ee832" stroke="black" points="570.5,-36 28.5,-36 28.5,0 570.5,0 570.5,-36"/>
<text text-anchor="middle" x="299.5" y="-14.3" font-family="Helvetica,sans-Serif" font-size="14.00">✓ Run GitHub Actions for `convertPheno_server/server/apis/submission.py`</text>
</g>
<!-- 590c50aa&#45;65d2&#45;4d15&#45;b861&#45;e1b16dc4413a&#45;&gt;3a6e4c8c&#45;b9fa&#45;4877&#45;87a5&#45;592e4634825c -->
<g id="edge1" class="edge">
<title>590c50aa&#45;65d2&#45;4d15&#45;b861&#45;e1b16dc4413a&#45;&gt;3a6e4c8c&#45;b9fa&#45;4877&#45;87a5&#45;592e4634825c</title>
<path fill="none" stroke="black" stroke-dasharray="5,2" d="M299.5,-72.72C299.5,-64.27 299.5,-54.89 299.5,-46.36"/>
<polygon fill="black" stroke="black" points="303,-46.15 299.5,-36.15 296,-46.15 303,-46.15"/>
</g>
</g>
</svg>
