<?xml version="1.0" encoding="UTF-8" standalone="no"?>
<!DOCTYPE svg PUBLIC "-//W3C//DTD SVG 1.1//EN"
 "http://www.w3.org/Graphics/SVG/1.1/DTD/svg11.dtd">
<!-- Generated by graphviz version 2.43.0 (0)
 -->
<!-- Title: %3 Pages: 1 -->
<svg width="1128pt" height="238pt"
 viewBox="0.00 0.00 1128.00 237.74" xmlns="http://www.w3.org/2000/svg" xmlns:xlink="http://www.w3.org/1999/xlink">
<g id="graph0" class="graph" transform="scale(1 1) rotate(0) translate(36 201.74)">
<title>%3</title>
<polygon fill="dimgray" stroke="transparent" points="-36,36 -36,-201.74 1092,-201.74 1092,36 -36,36"/>
<text text-anchor="middle" x="528" y="-150.54" font-family="Helvetica,sans-Serif" font-size="14.00">Sweep&#39;s Plan &amp; Progress</text>
<!-- start -->
<g id="node1" class="node">
<title>start</title>
</g>
<!-- 19d0e228&#45;7219&#45;476a&#45;9ade&#45;93bc10befe03 -->
<g id="node3" class="node">
<title>19d0e228&#45;7219&#45;476a&#45;9ade&#45;93bc10befe03</title>
<ellipse fill="#0ee832" stroke="black" cx="283.5" cy="-99.87" rx="231.45" ry="26.74"/>
<text text-anchor="middle" x="283.5" y="-103.67" font-family="Helvetica,sans-Serif" font-size="14.00">✓ Modify</text>
<text text-anchor="middle" x="283.5" y="-88.67" font-family="Helvetica,sans-Serif" font-size="14.00">convertPheno_server/tests/test_download.py</text>
</g>
<!-- start&#45;&gt;19d0e228&#45;7219&#45;476a&#45;9ade&#45;93bc10befe03 -->
<g id="edge4" class="edge">
<title>start&#45;&gt;19d0e228&#45;7219&#45;476a&#45;9ade&#45;93bc10befe03</title>
<path fill="none" stroke="black" d="M1.31,-99.87C4.91,-99.87 20.23,-99.87 42.01,-99.87"/>
<polygon fill="black" stroke="black" points="42.09,-103.37 52.09,-99.87 42.09,-96.37 42.09,-103.37"/>
<text text-anchor="middle" x="26.64" y="-106.67" font-family="Helvetica,sans-Serif" font-size="14.00">Start</text>
</g>
<!-- end -->
<g id="node2" class="node">
<title>end</title>
</g>
<!-- 35541cb2&#45;1395&#45;4099&#45;81c4&#45;fe198ef5c219 -->
<g id="node4" class="node">
<title>35541cb2&#45;1395&#45;4099&#45;81c4&#45;fe198ef5c219</title>
<ellipse fill="white" stroke="black" cx="779.5" cy="-99.87" rx="217.58" ry="26.74"/>
<text text-anchor="middle" x="779.5" y="-103.67" font-family="Helvetica,sans-Serif" font-size="14.00">▶ Modify</text>
<text text-anchor="middle" x="779.5" y="-88.67" font-family="Helvetica,sans-Serif" font-size="14.00">convertPheno_server/tests/test_clinical.py</text>
</g>
<!-- 19d0e228&#45;7219&#45;476a&#45;9ade&#45;93bc10befe03&#45;&gt;35541cb2&#45;1395&#45;4099&#45;81c4&#45;fe198ef5c219 -->
<g id="edge2" class="edge">
<title>19d0e228&#45;7219&#45;476a&#45;9ade&#45;93bc10befe03&#45;&gt;35541cb2&#45;1395&#45;4099&#45;81c4&#45;fe198ef5c219</title>
<path fill="none" stroke="black" d="M515.03,-99.87C527.14,-99.87 539.24,-99.87 551.35,-99.87"/>
<polygon fill="black" stroke="black" points="551.52,-103.37 561.52,-99.87 551.52,-96.37 551.52,-103.37"/>
</g>
<!-- 95f704ba&#45;3113&#45;4770&#45;b5d5&#45;84a86a988a4c -->
<g id="node5" class="node">
<title>95f704ba&#45;3113&#45;4770&#45;b5d5&#45;84a86a988a4c</title>
<polygon fill="yellow" stroke="black" points="522.5,-36 0.5,-36 0.5,0 522.5,0 522.5,-36"/>
<text text-anchor="middle" x="261.5" y="-14.3" font-family="Helvetica,sans-Serif" font-size="14.00">⋯ Run GitHub Actions for `convertPheno_server/tests/test_download.py`</text>
</g>
<!-- 19d0e228&#45;7219&#45;476a&#45;9ade&#45;93bc10befe03&#45;&gt;95f704ba&#45;3113&#45;4770&#45;b5d5&#45;84a86a988a4c -->
<g id="edge1" class="edge">
<title>19d0e228&#45;7219&#45;476a&#45;9ade&#45;93bc10befe03&#45;&gt;95f704ba&#45;3113&#45;4770&#45;b5d5&#45;84a86a988a4c</title>
<path fill="none" stroke="black" stroke-dasharray="5,2" d="M276.3,-72.72C273.92,-64.08 271.27,-54.47 268.88,-45.79"/>
<polygon fill="black" stroke="black" points="272.25,-44.86 266.22,-36.15 265.5,-46.72 272.25,-44.86"/>
</g>
<!-- 35541cb2&#45;1395&#45;4099&#45;81c4&#45;fe198ef5c219&#45;&gt;end -->
<g id="edge5" class="edge">
<title>35541cb2&#45;1395&#45;4099&#45;81c4&#45;fe198ef5c219&#45;&gt;end</title>
<path fill="none" stroke="black" d="M997.3,-99.87C1017.54,-99.87 1034.29,-99.87 1044.54,-99.87"/>
<polygon fill="black" stroke="black" points="1044.87,-103.37 1054.87,-99.87 1044.87,-96.37 1044.87,-103.37"/>
<text text-anchor="middle" x="1026.14" y="-106.67" font-family="Helvetica,sans-Serif" font-size="14.00">Finish</text>
</g>
<!-- 9d41425f&#45;b754&#45;479c&#45;9948&#45;bbf18afe3553 -->
<g id="node6" class="node">
<title>9d41425f&#45;b754&#45;479c&#45;9948&#45;bbf18afe3553</title>
<polygon fill="white" stroke="black" points="1040,-36 541,-36 541,0 1040,0 1040,-36"/>
<text text-anchor="middle" x="790.5" y="-14.3" font-family="Helvetica,sans-Serif" font-size="14.00">▶ Run GitHub Actions for `convertPheno_server/tests/test_clinical.py`</text>
</g>
<!-- 35541cb2&#45;1395&#45;4099&#45;81c4&#45;fe198ef5c219&#45;&gt;9d41425f&#45;b754&#45;479c&#45;9948&#45;bbf18afe3553 -->
<g id="edge3" class="edge">
<title>35541cb2&#45;1395&#45;4099&#45;81c4&#45;fe198ef5c219&#45;&gt;9d41425f&#45;b754&#45;479c&#45;9948&#45;bbf18afe3553</title>
<path fill="none" stroke="black" stroke-dasharray="5,2" d="M783.1,-72.72C784.28,-64.18 785.59,-54.68 786.77,-46.08"/>
<polygon fill="black" stroke="black" points="790.24,-46.53 788.14,-36.15 783.31,-45.58 790.24,-46.53"/>
</g>
</g>
</svg>
