<?xml version="1.0" encoding="UTF-8" standalone="no"?>
<!DOCTYPE svg PUBLIC "-//W3C//DTD SVG 1.1//EN"
 "http://www.w3.org/Graphics/SVG/1.1/DTD/svg11.dtd">
<!-- Generated by graphviz version 2.43.0 (0)
 -->
<!-- Title: %3 Pages: 1 -->
<svg width="1383pt" height="238pt"
 viewBox="0.00 0.00 1383.00 237.74" xmlns="http://www.w3.org/2000/svg" xmlns:xlink="http://www.w3.org/1999/xlink">
<g id="graph0" class="graph" transform="scale(1 1) rotate(0) translate(36 201.74)">
<title>%3</title>
<polygon fill="dimgray" stroke="transparent" points="-36,36 -36,-201.74 1347,-201.74 1347,36 -36,36"/>
<text text-anchor="middle" x="655.5" y="-150.54" font-family="Helvetica,sans-Serif" font-size="14.00">Sweep&#39;s Plan &amp; Progress</text>
<!-- start -->
<g id="node1" class="node">
<title>start</title>
</g>
<!-- e684a64e&#45;6a3f&#45;4fed&#45;9004&#45;433eefd57061 -->
<g id="node3" class="node">
<title>e684a64e&#45;6a3f&#45;4fed&#45;9004&#45;433eefd57061</title>
<ellipse fill="#0ee832" stroke="black" cx="316.5" cy="-99.87" rx="264.42" ry="26.74"/>
<text text-anchor="middle" x="316.5" y="-103.67" font-family="Helvetica,sans-Serif" font-size="14.00">✓ Create</text>
<text text-anchor="middle" x="316.5" y="-88.67" font-family="Helvetica,sans-Serif" font-size="14.00">convertPheno_client/src/code/utils/errorMessages.js</text>
</g>
<!-- start&#45;&gt;e684a64e&#45;6a3f&#45;4fed&#45;9004&#45;433eefd57061 -->
<g id="edge4" class="edge">
<title>start&#45;&gt;e684a64e&#45;6a3f&#45;4fed&#45;9004&#45;433eefd57061</title>
<path fill="none" stroke="black" d="M1.01,-99.87C3.95,-99.87 19.26,-99.87 41.7,-99.87"/>
<polygon fill="black" stroke="black" points="41.73,-103.37 51.73,-99.87 41.73,-96.37 41.73,-103.37"/>
<text text-anchor="middle" x="26.52" y="-106.67" font-family="Helvetica,sans-Serif" font-size="14.00">Start</text>
</g>
<!-- end -->
<g id="node2" class="node">
<title>end</title>
</g>
<!-- b2e0e40e&#45;eb4c&#45;40c0&#45;b543&#45;76dc1970612f -->
<g id="node4" class="node">
<title>b2e0e40e&#45;eb4c&#45;40c0&#45;b543&#45;76dc1970612f</title>
<ellipse fill="white" stroke="black" cx="935.5" cy="-99.87" rx="317.48" ry="26.74"/>
<text text-anchor="middle" x="935.5" y="-103.67" font-family="Helvetica,sans-Serif" font-size="14.00">▶ Modify</text>
<text text-anchor="middle" x="935.5" y="-88.67" font-family="Helvetica,sans-Serif" font-size="14.00">convertPheno_client/src/code/views/conversion/Conversion.jsx</text>
</g>
<!-- e684a64e&#45;6a3f&#45;4fed&#45;9004&#45;433eefd57061&#45;&gt;b2e0e40e&#45;eb4c&#45;40c0&#45;b543&#45;76dc1970612f -->
<g id="edge2" class="edge">
<title>e684a64e&#45;6a3f&#45;4fed&#45;9004&#45;433eefd57061&#45;&gt;b2e0e40e&#45;eb4c&#45;40c0&#45;b543&#45;76dc1970612f</title>
<path fill="none" stroke="black" d="M580.97,-99.87C589.85,-99.87 598.74,-99.87 607.63,-99.87"/>
<polygon fill="black" stroke="black" points="607.67,-103.37 617.67,-99.87 607.67,-96.37 607.67,-103.37"/>
</g>
<!-- 0668ec6f&#45;e5a7&#45;4a8e&#45;be05&#45;539f8c11e4df -->
<g id="node5" class="node">
<title>0668ec6f&#45;e5a7&#45;4a8e&#45;be05&#45;539f8c11e4df</title>
<polygon fill="yellow" stroke="black" points="598,-36 29,-36 29,0 598,0 598,-36"/>
<text text-anchor="middle" x="313.5" y="-14.3" font-family="Helvetica,sans-Serif" font-size="14.00">⋯ Run GitHub Actions for `convertPheno_client/src/code/utils/errorMessages.js`</text>
</g>
<!-- e684a64e&#45;6a3f&#45;4fed&#45;9004&#45;433eefd57061&#45;&gt;0668ec6f&#45;e5a7&#45;4a8e&#45;be05&#45;539f8c11e4df -->
<g id="edge1" class="edge">
<title>e684a64e&#45;6a3f&#45;4fed&#45;9004&#45;433eefd57061&#45;&gt;0668ec6f&#45;e5a7&#45;4a8e&#45;be05&#45;539f8c11e4df</title>
<path fill="none" stroke="black" stroke-dasharray="5,2" d="M315.52,-72.72C315.2,-64.27 314.85,-54.89 314.53,-46.36"/>
<polygon fill="black" stroke="black" points="318.02,-46.01 314.14,-36.15 311.02,-46.27 318.02,-46.01"/>
</g>
<!-- b2e0e40e&#45;eb4c&#45;40c0&#45;b543&#45;76dc1970612f&#45;&gt;end -->
<g id="edge5" class="edge">
<title>b2e0e40e&#45;eb4c&#45;40c0&#45;b543&#45;76dc1970612f&#45;&gt;end</title>
<path fill="none" stroke="black" d="M1253.14,-99.87C1273.39,-99.87 1289.65,-99.87 1299.62,-99.87"/>
<polygon fill="black" stroke="black" points="1299.91,-103.37 1309.91,-99.87 1299.91,-96.37 1299.91,-103.37"/>
<text text-anchor="middle" x="1281.5" y="-106.67" font-family="Helvetica,sans-Serif" font-size="14.00">Finish</text>
</g>
<!-- dff2f2af&#45;6dc2&#45;4446&#45;8e8d&#45;87b8e6d78877 -->
<g id="node6" class="node">
<title>dff2f2af&#45;6dc2&#45;4446&#45;8e8d&#45;87b8e6d78877</title>
<polygon fill="white" stroke="black" points="1256.5,-36 616.5,-36 616.5,0 1256.5,0 1256.5,-36"/>
<text text-anchor="middle" x="936.5" y="-14.3" font-family="Helvetica,sans-Serif" font-size="14.00">▶ Run GitHub Actions for `convertPheno_client/src/code/views/conversion/Conversion.jsx`</text>
</g>
<!-- b2e0e40e&#45;eb4c&#45;40c0&#45;b543&#45;76dc1970612f&#45;&gt;dff2f2af&#45;6dc2&#45;4446&#45;8e8d&#45;87b8e6d78877 -->
<g id="edge3" class="edge">
<title>b2e0e40e&#45;eb4c&#45;40c0&#45;b543&#45;76dc1970612f&#45;&gt;dff2f2af&#45;6dc2&#45;4446&#45;8e8d&#45;87b8e6d78877</title>
<path fill="none" stroke="black" stroke-dasharray="5,2" d="M935.83,-72.72C935.93,-64.27 936.05,-54.89 936.16,-46.36"/>
<polygon fill="black" stroke="black" points="939.66,-46.19 936.29,-36.15 932.66,-46.1 939.66,-46.19"/>
</g>
</g>
</svg>
